<svg xmlns="http://www.w3.org/2000/svg" xmlns:xlink="http://www.w3.org/1999/xlink" viewBox="0 0 512 512"><defs><style>.cls-1,.cls-13{fill:none;}.cls-2{fill:url(#linear-gradient);}.cls-3{fill:url(#linear-gradient-2);}.cls-4{fill:url(#linear-gradient-3);}.cls-5{fill:url(#linear-gradient-4);}.cls-6{fill:url(#linear-gradient-5);}.cls-7{fill:url(#linear-gradient-6);}.cls-8{fill:url(#linear-gradient-7);}.cls-9{fill:url(#linear-gradient-8);}.cls-10{fill:url(#linear-gradient-9);}.cls-11{fill:#e3b305;}.cls-12{fill:#231f20;}.cls-13{stroke:#e3b305;stroke-miterlimit:10;}</style><linearGradient id="linear-gradient" x1="327" y1="88.58" x2="445.06" y2="293.07" gradientUnits="userSpaceOnUse"><stop offset="0" stop-color="#2008c4"/><stop offset="1" stop-color="#1e04a0"/></linearGradient><linearGradient id="linear-gradient-2" x1="97.07" y1="83.93" x2="219.58" y2="296.12" xlink:href="#linear-gradient"/><linearGradient id="linear-gradient-3" x1="268.79" y1="159.58" x2="268.79" y2="133.42" gradientUnits="userSpaceOnUse"><stop offset="0" stop-color="#2daedf"/><stop offset="1" stop-color="#265cbd"/></linearGradient><linearGradient id="linear-gradient-4" x1="262.48" y1="97.7" x2="275.74" y2="97.7" gradientUnits="userSpaceOnUse"><stop offset="0" stop-color="#e3b305"/><stop offset="0.46" stop-color="#b78c04"/><stop offset="1" stop-color="#b27e18"/></linearGradient><linearGradient id="linear-gradient-5" x1="239.4" y1="104.84" x2="262.37" y2="104.84" xlink:href="#linear-gradient-4"/><linearGradient id="linear-gradient-6" x1="221.12" y1="116.23" x2="258.21" y2="116.23" xlink:href="#linear-gradient-4"/><linearGradient id="linear-gradient-7" x1="280.01" y1="116.42" x2="316.33" y2="116.42" xlink:href="#linear-gradient-4"/><linearGradient id="linear-gradient-8" x1="275.85" y1="104.84" x2="298.82" y2="104.84" xlink:href="#linear-gradient-4"/><linearGradient id="linear-gradient-9" x1="269.72" y1="294.36" x2="269.72" y2="171.02" xlink:href="#linear-gradient-4"/></defs><g id="Layer_2" data-name="Layer 2"><g id="Layer_1-2" data-name="Layer 1"><rect class="cls-1" width="512" height="512" rx="18.01"/><path class="cls-2" d="M361.28,314.32,423.89,82.41a10.7,10.7,0,0,0-10.33-13.49H363.93A10.73,10.73,0,0,0,354.8,74l-56.7,92.68,39.77-18.45a10.7,10.7,0,0,1,15.2,9.71v155a4.12,4.12,0,0,0,4.12,4.12h30.2c9.72,0,17.62-.3,17.62-.91v-.91c0-.61-7.9-.91-17.62-.91Z"/><path class="cls-3" d="M126,68.91A10.71,10.71,0,0,0,115.63,82.4l62.5,231.92H152c-9.71,0-17.61.3-17.61.91v.91c0,.61,7.9.91,17.61.91h30.21a4.12,4.12,0,0,0,4.12-4.12v-155a10.7,10.7,0,0,1,15.18-9.72l40.09,18.5L184.91,74a10.72,10.72,0,0,0-9.13-5.11Z"/><polygon class="cls-4" points="288.66 159.58 248.91 159.58 240.72 136.39 296.86 136.39 288.66 159.58"/><polygon class="cls-5" points="269.11 117.03 269.11 117.03 262.48 78.37 275.74 78.37 269.11 117.03"/><polygon class="cls-6" points="262.37 119.22 262.37 119.22 239.4 96.83 248.17 90.46 262.37 119.22"/><polygon class="cls-7" points="258.21 124.95 258.21 124.95 221.12 119.56 225.03 107.52 258.21 124.95"/><polygon class="cls-8" points="280.01 124.95 280.01 124.95 312.5 107.88 316.33 119.67 280.01 124.95"/><polygon class="cls-9" points="275.85 119.22 275.85 119.22 290.05 90.46 298.82 96.83 275.85 119.22"/><path class="cls-10" d="M312.82,204.83c-1.26,4.65-3.81,9.28-5.63,13.44Q301.61,231,296,243.76c-2,4.56-3.82,9.24-6,13.7,0,0-16,36.46-16.23,36.9v-70.3c0-3.71,1.92-7,4.27-9.82,1-2,1.77-3.52,1.76-5.81a10.92,10.92,0,0,0-2.82-7.72,8.77,8.77,0,0,0-7.05-2.84,10,10,0,0,0-7.26,2.84c-2.28,2.32-3.08,6-2.72,9.19.31,2.77,1.93,4.45,3.38,6.66a13.86,13.86,0,0,1,2.54,7.5v70.3L249.45,257l-6.91-15.82-11.71-26.78c-1.71-3.92-4-7.93-4.78-12.19a14,14,0,0,1,3.11-11.14l5.56-6.77,6.83-8.29A14.19,14.19,0,0,1,252,171h35.66a13.83,13.83,0,0,1,10.47,5l12.39,15.06C314.05,195.37,314.1,200.11,312.82,204.83Z"/><path class="cls-11" d="M68.33,334.82c124.49-5.1,250.84-5.13,375.34,0-124.5,5.14-250.84,5.1-375.34,0Z"/><polygon class="cls-12" points="74.06 384.74 73.39 384.63 57.13 408.79 40.74 384.63 40.14 384.73 40.14 384.63 31.5 384.63 31.5 436.81 40.14 436.81 40.14 398.57 57.07 423.39 74.06 398.36 74.06 436.81 82.71 436.81 82.71 384.63 74.06 384.63 74.06 384.74"/><path class="cls-12" d="M117,400.66a18.33,18.33,0,0,0-9-2,19.45,19.45,0,0,0-7.35,1.27,14.28,14.28,0,0,0-5.1,3.43A20.22,20.22,0,0,0,92.18,408l7.6,2.68a9,9,0,0,1,3.35-3.42,9.36,9.36,0,0,1,4.63-1.12,7.31,7.31,0,0,1,4.58,1.34,7.63,7.63,0,0,1,2.57,3.88,16.51,16.51,0,0,1,.64,3.05h-9.28q-7,0-10.93,3.06t-3.91,8.87a10.19,10.19,0,0,0,3.69,8.42q3.69,3,10.4,3t10-4.36c.12-.16.23-.34.34-.52l.22,4h7.82l.23-20.43a23.67,23.67,0,0,0-1.79-9.76A12.53,12.53,0,0,0,117,400.66ZM114.58,426a9.19,9.19,0,0,1-3.21,3.43,8.75,8.75,0,0,1-4.81,1.31,8.41,8.41,0,0,1-4.88-1.23,3.91,3.91,0,0,1-1.75-3.39,4.48,4.48,0,0,1,2-3.92q2-1.38,7-1.38h6.78v.6A9.41,9.41,0,0,1,114.58,426Z"/><path class="cls-12" d="M155.24,428.35a10.57,10.57,0,0,1-11.07.07,10.64,10.64,0,0,1-3.8-4.17,12.94,12.94,0,0,1-1.38-6.08,13.29,13.29,0,0,1,1.34-6.07,10.5,10.5,0,0,1,3.73-4.18,9.92,9.92,0,0,1,5.44-1.52,10.51,10.51,0,0,1,5.59,1.49,9.25,9.25,0,0,1,3.65,3.95l7.76-3a16.05,16.05,0,0,0-6.64-7.57,19.28,19.28,0,0,0-10-2.65,19.87,19.87,0,0,0-10,2.5A18,18,0,0,0,133,408a21.79,21.79,0,0,0,0,20.27,18.05,18.05,0,0,0,6.89,6.9A20.27,20.27,0,0,0,150,437.7a18.23,18.23,0,0,0,10-2.83,17.1,17.1,0,0,0,6.6-7.9l-7.76-3A9.62,9.62,0,0,1,155.24,428.35Z"/><path class="cls-12" d="M192.66,398.64a13.15,13.15,0,0,0-7.6,2.2,12.9,12.9,0,0,0-3.55,3.72l0-20.6h-8.35l.08,52.85h8.35l0-19.46h0c0-3.52.75-6.23,2.27-8.12a7.68,7.68,0,0,1,6.52-2.76,8.78,8.78,0,0,1,4.21,1,6.58,6.58,0,0,1,2.87,3.39,17.93,17.93,0,0,1,1,6.9v19.08h8.35V415.49q0-8.57-3.73-12.71C200.61,400,197.14,398.64,192.66,398.64Z"/><path class="cls-12" d="M239.77,419q0,5.29-2.31,8.13a7.78,7.78,0,0,1-6.56,2.76,8.92,8.92,0,0,1-4.21-1,6.61,6.61,0,0,1-2.87-3.43,18.2,18.2,0,0,1-1-6.86V399.54h-8.35v21.32q0,8.49,3.73,12.67t10.51,4.17a12.41,12.41,0,0,0,11.21-6.12l.34,5.23h7.83V399.54h-8.28Z"/><path class="cls-12" d="M280,407.36l-6.41-1.56a12.74,12.74,0,0,1-5.18-2.42,5.58,5.58,0,0,1-1.9-4.51,6.84,6.84,0,0,1,2.42-5.59,10.08,10.08,0,0,1,6.67-2,11.67,11.67,0,0,1,6.86,1.94,10.39,10.39,0,0,1,3.88,4.92l8.35-2.68a17,17,0,0,0-9.88-10.18,23.15,23.15,0,0,0-8.76-1.53q-8.88,0-13.64,4.07t-4.77,11.36a12.88,12.88,0,0,0,1.67,6.71,13.86,13.86,0,0,0,4.63,4.7,23.4,23.4,0,0,0,6.59,2.83L277,415a17.05,17.05,0,0,1,6.41,2.95,6,6,0,0,1,2.39,4.88,6.19,6.19,0,0,1-2.83,5.29,13.05,13.05,0,0,1-7.68,2,11.8,11.8,0,0,1-7-2.17,10.22,10.22,0,0,1-3.8-4.84l-8.5,2.61a13,13,0,0,0,2.35,4.43,18,18,0,0,0,4.25,3.84,21,21,0,0,0,6,2.69,27.46,27.46,0,0,0,7.49,1,24.42,24.42,0,0,0,10.25-1.93,14.36,14.36,0,0,0,6.38-5.37,14.52,14.52,0,0,0,2.16-7.9,13.29,13.29,0,0,0-3.88-9.25Q287,409.08,280,407.36Z"/><path class="cls-12" d="M320.28,429.73a5.15,5.15,0,0,1-1.64.3,4.63,4.63,0,0,1-3.61-1.35,5.65,5.65,0,0,1-1.23-3.95v-18h10.06v-7.15H313.8V387.91h-8.28v11.63h-6.18v7.15h6.18V426.3q0,5.52,3.1,8.46t9,2.94a11.33,11.33,0,0,0,3.88-.7,17.28,17.28,0,0,0,3.87-2.05l-3.05-6.34A7.59,7.59,0,0,1,320.28,429.73Z"/><path class="cls-12" d="M356.59,419c0,3.53-.78,6.24-2.31,8.13a7.81,7.81,0,0,1-6.56,2.76,8.94,8.94,0,0,1-4.22-1,6.66,6.66,0,0,1-2.87-3.43,18.2,18.2,0,0,1-1-6.86V399.54h-8.35v21.32q0,8.49,3.73,12.67t10.51,4.17a12.38,12.38,0,0,0,11.21-6.12l.34,5.23h7.83V399.54h-8.27Z"/><path class="cls-12" d="M400.64,405a14.08,14.08,0,0,0-3.69-3.91,13.5,13.5,0,0,0-8.09-2.43,15.91,15.91,0,0,0-8.83,2.43,16.35,16.35,0,0,0-5.89,6.78,26.11,26.11,0,0,0,0,20.61,16.35,16.35,0,0,0,5.89,6.82,15.91,15.91,0,0,0,8.83,2.42,13.5,13.5,0,0,0,8.09-2.42,14.17,14.17,0,0,0,3.77-4l.3,5.57h7.9V384.63h-8.28ZM396,428.57a8.57,8.57,0,0,1-5,1.53,9.55,9.55,0,0,1-5.33-1.53,10.22,10.22,0,0,1-3.65-4.21A14.55,14.55,0,0,1,382,412a10.12,10.12,0,0,1,3.61-4.18,9.6,9.6,0,0,1,5.3-1.49,8.87,8.87,0,0,1,5.1,1.49,9.89,9.89,0,0,1,3.43,4.18,16.17,16.17,0,0,1,0,12.37A10,10,0,0,1,396,428.57Z"/><polygon class="cls-12" points="418.68 436.81 426.96 436.81 427.03 399.54 418.76 399.54 418.68 436.81"/><path class="cls-12" d="M422.86,382.69a4.77,4.77,0,0,0-3.47,1.42,4.58,4.58,0,0,0-1.45,3.42,4.92,4.92,0,0,0,9.84,0,4.59,4.59,0,0,0-1.46-3.42A4.77,4.77,0,0,0,422.86,382.69Z"/><path class="cls-12" d="M470.45,408a17.6,17.6,0,0,0-6.74-6.9,20.91,20.91,0,0,0-19.83,0,17.7,17.7,0,0,0-6.75,6.9,20.7,20.7,0,0,0-2.42,10.13,20.41,20.41,0,0,0,2.46,10.14,17.87,17.87,0,0,0,6.82,6.9,19.73,19.73,0,0,0,9.95,2.49,19.35,19.35,0,0,0,9.84-2.49,17.46,17.46,0,0,0,6.71-6.9,20.93,20.93,0,0,0,2.39-10.14A20.6,20.6,0,0,0,470.45,408Zm-7.34,16.28a10.43,10.43,0,0,1-3.73,4.18,9.85,9.85,0,0,1-5.44,1.53,10.15,10.15,0,0,1-5.55-1.53,10.59,10.59,0,0,1-3.8-4.18,13.09,13.09,0,0,1-1.38-6.15,13.71,13.71,0,0,1,1.34-6.18,9.92,9.92,0,0,1,9.24-5.67,10,10,0,0,1,5.52,1.53,10.77,10.77,0,0,1,3.76,4.17,13.15,13.15,0,0,1,1.38,6.15A13.33,13.33,0,0,1,463.11,424.32Z"/><circle class="cls-13" cx="472.66" cy="389.95" r="7.84"/><path d="M474,390.86c3.52-1.12,2.33-6.45-1.32-6.13h-3.42v10.5h1.27v-3.77a.35.35,0,0,1,.35-.35h1.43a.79.79,0,0,1,.68.39l2.19,3.73h1.4Zm-1.15-.91h-2a.36.36,0,0,1-.36-.35v-3.34a.36.36,0,0,1,.36-.35c1.06,0,2.7-.18,3.36.56A2,2,0,0,1,472.81,390Z"/></g></g></svg>