<svg xmlns="http://www.w3.org/2000/svg" xmlns:xlink="http://www.w3.org/1999/xlink" viewBox="0 0 515.21 518.23"><defs><style>.cls-1{fill:#fff;stroke:#e3b305;stroke-miterlimit:10;stroke-width:3.21px;}.cls-2{fill:url(#linear-gradient);}.cls-3{fill:url(#linear-gradient-2);}.cls-4{fill:url(#linear-gradient-3);}.cls-5{fill:url(#linear-gradient-4);}.cls-6{fill:url(#linear-gradient-5);}.cls-7{fill:url(#linear-gradient-6);}.cls-8{fill:url(#linear-gradient-7);}.cls-9{fill:url(#linear-gradient-8);}.cls-10{fill:url(#linear-gradient-9);}.cls-11{fill:#e3b305;}</style><linearGradient id="linear-gradient" x1="347.63" y1="114.08" x2="498.8" y2="375.91" gradientUnits="userSpaceOnUse"><stop offset="0" stop-color="#2008c4"/><stop offset="1" stop-color="#1e04a0"/></linearGradient><linearGradient id="linear-gradient-2" x1="54.63" y1="108.24" x2="211.46" y2="379.88" xlink:href="#linear-gradient"/><linearGradient id="linear-gradient-3" x1="273.89" y1="204.94" x2="273.89" y2="171.42" gradientUnits="userSpaceOnUse"><stop offset="0" stop-color="#2daedf"/><stop offset="1" stop-color="#265cbd"/></linearGradient><linearGradient id="linear-gradient-4" x1="265.86" y1="125.66" x2="282.74" y2="125.66" gradientUnits="userSpaceOnUse"><stop offset="0" stop-color="#e3b305"/><stop offset="0.46" stop-color="#b78c04"/><stop offset="1" stop-color="#b27e18"/></linearGradient><linearGradient id="linear-gradient-5" x1="236.47" y1="134.8" x2="265.72" y2="134.8" xlink:href="#linear-gradient-4"/><linearGradient id="linear-gradient-6" x1="213.18" y1="149.4" x2="260.41" y2="149.4" xlink:href="#linear-gradient-4"/><linearGradient id="linear-gradient-7" x1="288.19" y1="149.64" x2="334.45" y2="149.64" xlink:href="#linear-gradient-4"/><linearGradient id="linear-gradient-8" x1="282.89" y1="134.8" x2="312.14" y2="134.8" xlink:href="#linear-gradient-4"/><linearGradient id="linear-gradient-9" x1="275.08" y1="377.61" x2="275.08" y2="219.59" xlink:href="#linear-gradient-4"/></defs><g id="Layer_2" data-name="Layer 2"><g id="Layer_1-2" data-name="Layer 1"><rect class="cls-1" x="1.6" y="1.6" width="512" height="515.02" rx="30.9"/><path class="cls-2" d="M391.69,403.18l79.75-297.11a13.7,13.7,0,0,0-13.16-17.29H395.07a13.61,13.61,0,0,0-11.62,6.56L311.23,214.08l50.65-23.65a13.63,13.63,0,0,1,19.36,12.44V401.41a5.27,5.27,0,0,0,5.25,5.28H425c12.38,0,22.43-.39,22.43-1.17v-1.17c0-.77-10.05-1.17-22.43-1.17Z"/><path class="cls-3" d="M92,88.78a13.69,13.69,0,0,0-13.16,17.28l79.6,297.12H125.16c-12.38,0-22.43.39-22.43,1.17v1.17c0,.78,10,1.17,22.43,1.17h38.47a5.27,5.27,0,0,0,5.25-5.28V202.82a13.63,13.63,0,0,1,19.34-12.45l51.06,23.71L167.06,95.34a13.63,13.63,0,0,0-11.63-6.56Z"/><polygon class="cls-4" points="299.2 204.94 248.57 204.94 238.14 175.23 309.64 175.23 299.2 204.94"/><polygon class="cls-5" points="274.3 150.42 274.3 150.42 265.86 100.89 282.74 100.89 274.3 150.42"/><polygon class="cls-6" points="265.72 153.23 265.72 153.23 236.47 124.54 247.63 116.38 265.72 153.23"/><polygon class="cls-7" points="260.41 160.57 260.41 160.57 213.18 153.66 218.16 138.23 260.41 160.57"/><polygon class="cls-8" points="288.19 160.57 288.19 160.57 329.57 138.7 334.45 153.81 288.19 160.57"/><polygon class="cls-9" points="282.89 153.23 282.89 153.23 300.97 116.38 312.14 124.54 282.89 153.23"/><path class="cls-10" d="M330,262.92c-1.6,5.95-4.85,11.89-7.17,17.21q-7.1,16.33-14.2,32.66c-2.54,5.83-4.86,11.84-7.65,17.55,0,0-20.4,46.71-20.67,47.27V287.55c0-4.75,2.45-8.95,5.44-12.58,1.23-2.53,2.25-4.51,2.23-7.45a14,14,0,0,0-3.59-9.89c-2.18-2.52-5.17-3.64-9-3.64a12.76,12.76,0,0,0-9.25,3.64c-2.89,3-3.92,7.68-3.46,11.77.4,3.56,2.46,5.71,4.31,8.54a17.81,17.81,0,0,1,3.23,9.61v90.06l-20.94-47.82-8.81-20.27-14.91-34.31c-2.18-5-5.14-10.16-6.1-15.62a18.07,18.07,0,0,1,4-14.27l7.08-8.67L239.2,226c3.54-3.91,8.16-6.43,13.33-6.43H298A17.59,17.59,0,0,1,311.29,226l15.78,19.3C331.54,250.79,331.61,256.86,330,262.92Z"/><path class="cls-11" d="M18.58,429.45q238.89-9.79,478.05,0-238.89,9.89-478,0Z"/></g></g></svg>