<svg xmlns="http://www.w3.org/2000/svg" xmlns:xlink="http://www.w3.org/1999/xlink" viewBox="0 0 375.34 316.85"><defs><style>.cls-1{fill:none;}.cls-2{fill:url(#linear-gradient);}.cls-3{fill:url(#linear-gradient-2);}.cls-4{fill:url(#linear-gradient-3);}.cls-5{fill:url(#linear-gradient-4);}.cls-6{fill:url(#linear-gradient-5);}.cls-7{fill:url(#linear-gradient-6);}.cls-8{fill:url(#linear-gradient-7);}.cls-9{fill:url(#linear-gradient-8);}.cls-10{fill:url(#linear-gradient-9);}.cls-11{fill:#e3b305;}</style><linearGradient id="linear-gradient" x1="244.91" y1="45.14" x2="362.97" y2="249.63" gradientUnits="userSpaceOnUse"><stop offset="0" stop-color="#2008c4"/><stop offset="1" stop-color="#1e04a0"/></linearGradient><linearGradient id="linear-gradient-2" x1="14.98" y1="40.49" x2="137.48" y2="252.68" xlink:href="#linear-gradient"/><linearGradient id="linear-gradient-3" x1="186.69" y1="116.14" x2="186.69" y2="89.98" gradientUnits="userSpaceOnUse"><stop offset="0" stop-color="#2daedf"/><stop offset="1" stop-color="#265cbd"/></linearGradient><linearGradient id="linear-gradient-4" x1="180.39" y1="54.26" x2="193.64" y2="54.26" gradientUnits="userSpaceOnUse"><stop offset="0" stop-color="#e3b305"/><stop offset="0.46" stop-color="#b78c04"/><stop offset="1" stop-color="#b27e18"/></linearGradient><linearGradient id="linear-gradient-5" x1="157.31" y1="61.4" x2="180.28" y2="61.4" xlink:href="#linear-gradient-4"/><linearGradient id="linear-gradient-6" x1="139.02" y1="72.79" x2="176.11" y2="72.79" xlink:href="#linear-gradient-4"/><linearGradient id="linear-gradient-7" x1="197.92" y1="72.97" x2="234.24" y2="72.97" xlink:href="#linear-gradient-4"/><linearGradient id="linear-gradient-8" x1="193.76" y1="61.4" x2="216.72" y2="61.4" xlink:href="#linear-gradient-4"/><linearGradient id="linear-gradient-9" x1="187.63" y1="250.91" x2="187.63" y2="127.58" xlink:href="#linear-gradient-4"/></defs><g id="Layer_2" data-name="Layer 2"><g id="Layer_1-2" data-name="Layer 1"><rect class="cls-1" x="2.3" width="370.73" height="316.85" rx="12.06"/><path class="cls-2" d="M279.18,270.88,341.8,39a10.7,10.7,0,0,0-10.34-13.49H281.84a10.68,10.68,0,0,0-9.13,5.11L216,123.27l39.76-18.45a10.7,10.7,0,0,1,15.21,9.7v155a4.11,4.11,0,0,0,4.12,4.12h30.2c9.72,0,17.61-.3,17.61-.91v-.91c0-.61-7.89-.91-17.61-.91Z"/><path class="cls-3" d="M43.87,25.47A10.71,10.71,0,0,0,33.54,39L96,270.88H69.92c-9.72,0-17.61.3-17.61.91v.91c0,.61,7.89.91,17.61.91h30.2a4.11,4.11,0,0,0,4.12-4.12v-155a10.7,10.7,0,0,1,15.19-9.71l40.09,18.5-56.7-92.68a10.74,10.74,0,0,0-9.13-5.12Z"/><polygon class="cls-4" points="206.57 116.14 166.81 116.14 158.62 92.95 214.76 92.95 206.57 116.14"/><polygon class="cls-5" points="187.02 73.59 187.02 73.59 180.39 34.93 193.64 34.93 187.02 73.59"/><polygon class="cls-6" points="180.28 75.78 180.28 75.78 157.31 53.38 166.08 47.02 180.28 75.78"/><polygon class="cls-7" points="176.11 81.51 176.11 81.51 139.02 76.12 142.94 64.07 176.11 81.51"/><polygon class="cls-8" points="197.92 81.51 197.92 81.51 230.41 64.44 234.24 76.23 197.92 81.51"/><polygon class="cls-9" points="193.76 75.78 193.76 75.78 207.96 47.02 216.72 53.38 193.76 75.78"/><path class="cls-10" d="M230.73,161.39c-1.27,4.65-3.82,9.28-5.64,13.44q-5.57,12.75-11.14,25.49c-2,4.55-3.82,9.24-6,13.7,0,0-16,36.46-16.23,36.89V180.62c0-3.71,1.92-7,4.27-9.82,1-2,1.77-3.52,1.75-5.82a10.89,10.89,0,0,0-2.82-7.72,8.79,8.79,0,0,0-7-2.83,10.07,10.07,0,0,0-7.26,2.83c-2.27,2.33-3.07,6-2.72,9.19.32,2.78,1.93,4.46,3.39,6.67a13.86,13.86,0,0,1,2.54,7.5v70.29l-16.45-37.32-6.91-15.82L148.74,171c-1.71-3.92-4-7.93-4.79-12.19a14,14,0,0,1,3.12-11.14l5.55-6.77,6.84-8.29a14.15,14.15,0,0,1,10.46-5h35.67a13.84,13.84,0,0,1,10.47,5l12.38,15.06C232,151.93,232,156.67,230.73,161.39Z"/><path class="cls-11" d="M0,291.38c124.49-5.1,250.84-5.14,375.34,0-124.5,5.14-250.85,5.1-375.34,0Z"/></g></g></svg>